HIERARCHY
ROOT Hips
{
	OFFSET -1.602300 6.242603 43.997101
	CHANNELS 6 Xposition Yposition Zposition Zrotation Xrotation Yrotation
	JOINT Chest
	{
		OFFSET -0.204900 1.598101 7.917301
		CHANNELS 6 Xposition Yposition Zposition Zrotation Xrotation Yrotation
		JOINT Chest2
		{
			OFFSET 0.000000 0.000000 3.404099
			CHANNELS 6 Xposition Yposition Zposition Zrotation Xrotation Yrotation
			JOINT Neck
			{
				OFFSET 0.000000 0.000000 7.928600
				CHANNELS 6 Xposition Yposition Zposition Zrotation Xrotation Yrotation
				JOINT Head
				{
					OFFSET 0.000000 0.000000 2.173897
					CHANNELS 6 Xposition Yposition Zposition Zrotation Xrotation Yrotation
					End Site
					{
						OFFSET 0.000000 0.000001 10.404503
					}
				}
			}
			JOINT LeftCollar
			{
				OFFSET 2.833800 -1.396299 4.843300
				CHANNELS 6 Xposition Yposition Zposition Zrotation Xrotation Yrotation
				JOINT LeftShoulder
				{
					OFFSET 4.363600 0.000000 0.000000
					CHANNELS 6 Xposition Yposition Zposition Zrotation Xrotation Yrotation
					JOINT LeftElbow
					{
						OFFSET 0.000000 -0.000001 -10.306900
						CHANNELS 6 Xposition Yposition Zposition Zrotation Xrotation Yrotation
						JOINT LeftWrist
						{
							OFFSET 0.000000 -0.000001 -12.404900
							CHANNELS 6 Xposition Yposition Zposition Zrotation Xrotation Yrotation
							End Site
							{
								OFFSET 0.000000 0.000000 -2.173901
							}
						}
					}
				}
			}
			JOINT RightCollar
			{
				OFFSET -2.354800 -1.897200 5.063099
				CHANNELS 6 Xposition Yposition Zposition Zrotation Xrotation Yrotation
				JOINT RightShoulder
				{
					OFFSET -4.375800 0.000000 0.000000
					CHANNELS 6 Xposition Yposition Zposition Zrotation Xrotation Yrotation
					JOINT RightElbow
					{
						OFFSET 0.000000 -0.000001 -10.005001
						CHANNELS 6 Xposition Yposition Zposition Zrotation Xrotation Yrotation
						JOINT RightWrist
						{
							OFFSET 0.000000 -0.000001 -13.174900
							CHANNELS 6 Xposition Yposition Zposition Zrotation Xrotation Yrotation
							End Site
							{
								OFFSET 0.000000 0.000000 -2.173901
							}
						}
					}
				}
			}
		}
	}
	JOINT LeftHip
	{
		OFFSET 2.240600 0.386800 -2.614101
		CHANNELS 6 Xposition Yposition Zposition Zrotation Xrotation Yrotation
		JOINT LeftKnee
		{
			OFFSET 0.000000 -0.000001 -18.592899
			CHANNELS 6 Xposition Yposition Zposition Zrotation Xrotation Yrotation
			JOINT LeftAnkle
			{
				OFFSET 0.000000 -0.000001 -18.765800
				CHANNELS 6 Xposition Yposition Zposition Zrotation Xrotation Yrotation
				End Site
				{
					OFFSET 0.000000 -8.655000 0.000000
				}
			}
		}
	}
	JOINT RightHip
	{
		OFFSET -2.014900 -0.220900 -2.615898
		CHANNELS 6 Xposition Yposition Zposition Zrotation Xrotation Yrotation
		JOINT RightKnee
		{
			OFFSET 0.000000 -0.000001 -18.633900
			CHANNELS 6 Xposition Yposition Zposition Zrotation Xrotation Yrotation
			JOINT RightAnkle
			{
				OFFSET 0.000000 -0.000001 -18.285101
				CHANNELS 6 Xposition Yposition Zposition Zrotation Xrotation Yrotation
				End Site
				{
					OFFSET 0.000000 -7.524500 0.000000
				}
			}
		}
	}
}
MOTION
Frames: 7
Frame Time: 0.041667
-6.385200 26.324207 8.042404 5.886817 -4.525499 4.074118 -0.204901 1.598101 7.917313 -6.029820 5.601471 0.629647 0.000000 0.000000 3.404107 -3.080080 -16.824055 -2.212133 -0.000000 0.000001 7.928597 4.661275 14.434519 -6.559195 0.000001 0.000001 2.173898 1.546406 -2.768159 2.135046 2.833800 -1.396298 4.843306 31.374269 -4.413209 9.682898 4.363594 0.000007 -0.000002 -41.115748 12.869941 -118.010274 -0.000001 -0.000001 -10.306898 617.723784 -178.650674 540.357958 0.000004 0.000008 -12.404891 -304.962373 360.603717 -315.075807 -2.354801 -1.897200 5.063102 7.367997 9.489754 -18.573907 -4.375790 0.000004 -0.000010 19.236456 -7.831432 136.979977 0.000004 -0.000004 -10.004989 -597.800559 -177.378182 -538.670136 0.000001 0.000004 -13.174898 -59.945415 -14.431498 326.637787 2.240598 0.386804 -2.614100 136.601297 -33.402965 104.182269 -0.000000 0.000001 -18.592888 -118.351728 34.583027 133.658073 -0.000001 0.000001 -18.765797 10.550531 36.499650 -4.963605 -2.014896 -0.220895 -2.615895 -114.811314 -20.388635 -91.715575 -0.000000 0.000006 -18.633886 177.260034 29.318625 -179.973340 -0.000006 -0.000007 -18.285086 -10.688468 33.902061 -210.895696
-6.399100 26.348106 8.015106 5.913643 -4.582896 4.079627 -0.204900 1.598098 7.917307 -6.056082 5.850553 0.673419 -0.000000 0.000002 3.404104 -3.079841 -16.836935 -2.213210 -0.000002 -0.000000 7.928600 4.686258 14.065186 -6.648947 -0.000000 0.000000 2.173901 1.519292 -2.903249 2.119663 2.833800 -1.396298 4.843304 31.391888 -4.476848 9.712460 4.363596 0.000009 -0.000012 -41.070385 12.774931 -117.745836 0.000000 -0.000003 -10.306900 617.919838 -178.690248 540.344516 0.000003 0.000003 -12.404891 -304.063739 360.853019 -315.147169 -2.354803 -1.897202 5.063103 7.242103 9.339343 -18.687041 -4.375792 0.000001 -0.000016 19.245098 -7.781062 136.784865 -0.000003 -0.000000 -10.004997 -598.790773 -177.293775 -538.889303 -0.000000 0.000004 -13.174891 -61.107531 -14.216416 327.371377 2.240599 0.386802 -2.614104 136.583266 -33.611672 104.210088 0.000001 0.000001 -18.592890 -118.211027 34.744264 133.679001 -0.000001 -0.000000 -18.765799 10.482981 36.537530 -4.967457 -2.014897 -0.220897 -2.615898 -114.812721 -20.318735 -91.768140 0.000000 0.000003 -18.633888 177.270962 29.343671 -180.011671 -0.000005 -0.000008 -18.285086 -10.759302 33.879118 -210.801576
-6.409399 26.370308 7.989712 5.937558 -4.669589 4.079998 -0.204901 1.598099 7.917308 -6.077308 6.114032 0.715076 -0.000001 -0.000001 3.404103 -3.080622 -16.889480 -2.216157 -0.000001 0.000001 7.928600 4.707625 13.763559 -6.726754 0.000000 0.000002 2.173898 1.500143 -3.008166 2.089559 2.833800 -1.396299 4.843310 31.224736 -4.381363 9.752030 4.363591 0.000013 -0.000015 -40.863212 12.610797 -117.609861 0.000001 -0.000000 -10.306894 618.014914 -178.724713 540.337686 0.000003 0.000002 -12.404899 -303.034402 361.031259 -315.345654 -2.354803 -1.897199 5.063105 7.170502 9.253884 -18.833128 -4.375791 0.000006 -0.000010 19.331587 -7.818938 136.649641 0.000004 -0.000001 -10.004992 -599.502096 -177.238368 -539.059402 -0.000000 0.000007 -13.174895 -62.043908 -14.048615 327.987596 2.240599 0.386803 -2.614103 136.551737 -33.765805 104.208264 0.000000 -0.000000 -18.592890 -118.153325 34.892493 133.702100 -0.000002 0.000001 -18.765799 10.397433 36.575772 -4.919289 -2.014896 -0.220897 -2.615900 -114.815152 -20.267823 -91.786862 0.000001 0.000003 -18.633886 177.254023 29.356809 -180.025536 -0.000006 -0.000007 -18.285086 -10.840486 33.853546 -210.695258
-6.417600 26.390005 7.965210 5.976446 -4.791460 4.071838 -0.204900 1.598101 7.917305 -6.114453 6.408414 0.785560 0.000000 -0.000001 3.404106 -3.091066 -16.973046 -2.223411 -0.000000 -0.000002 7.928601 4.703669 13.504285 -6.785810 0.000000 0.000002 2.173899 1.493920 -3.081086 2.100675 2.833801 -1.396302 4.843303 30.934019 -4.190826 9.847947 4.363595 0.000013 -0.000013 -40.520364 12.421517 -117.617060 -0.000004 -0.000003 -10.306898 618.076003 -178.750067 540.338342 0.000006 0.000004 -12.404895 -302.121506 361.215838 -315.584355 -2.354804 -1.897201 5.063102 7.134585 9.215208 -19.034851 -4.375796 0.000006 -0.000011 19.539973 -7.929771 136.579673 0.000000 0.000001 -10.004994 -599.992340 -177.228478 -539.146501 -0.000000 0.000006 -13.174900 -62.809306 -13.805255 328.444017 2.240598 0.386800 -2.614102 136.486168 -33.891884 104.171136 0.000002 0.000000 -18.592892 -118.154677 35.031388 133.734762 -0.000001 0.000000 -18.765799 10.300714 36.611962 -4.835143 -2.014896 -0.220900 -2.615899 -114.837186 -20.242288 -91.761310 -0.000001 0.000005 -18.633886 177.172962 29.358451 -179.998776 -0.000006 -0.000005 -18.285086 -10.960109 33.822277 -210.553436
-6.423699 26.407705 7.941105 5.995924 -4.927301 4.047004 -0.204900 1.598101 7.917313 -6.133659 6.692292 0.871605 0.000000 -0.000002 3.404102 -3.103393 -17.034635 -2.228447 -0.000001 -0.000000 7.928600 4.686513 13.285045 -6.818437 -0.000000 0.000004 2.173898 1.396606 -3.271952 2.555970 2.833801 -1.396297 4.843306 30.641820 -3.995644 9.993375 4.363600 0.000007 -0.000009 -40.178048 12.267319 -117.671524 -0.000001 -0.000003 -10.306896 618.196652 -178.778385 540.333041 0.000005 0.000002 -12.404895 -301.387507 361.406974 -315.816445 -2.354803 -1.897199 5.063103 7.105986 9.176863 -19.289754 -4.375794 0.000002 -0.000009 19.757574 -7.979930 136.569072 0.000002 -0.000005 -10.004994 -600.384119 -177.251878 -539.161036 -0.000003 0.000003 -13.174900 -63.625172 -13.574903 328.794488 2.240599 0.386805 -2.614099 136.423576 -34.042052 104.119745 0.000001 -0.000002 -18.592890 -118.158216 35.194394 133.775867 0.000001 0.000001 -18.765797 10.175364 36.646776 -4.740627 -2.014895 -0.220892 -2.615893 -114.864370 -20.183807 -91.730977 -0.000000 0.000003 -18.633886 177.093268 29.338466 -179.941812 -0.000005 -0.000007 -18.285086 -11.109257 33.785077 -210.380523
-6.426900 26.424805 7.916904 5.985155 -5.059626 3.996225 -0.204900 1.598102 7.917302 -6.124617 6.949312 0.967001 0.000000 0.000000 3.404099 -3.121102 -17.072259 -2.233252 -0.000000 0.000002 7.928596 4.655804 13.077986 -6.815493 -0.000000 0.000000 2.173896 1.413170 -3.334785 2.489424 2.833802 -1.396295 4.843305 30.483093 -3.931874 10.120285 4.363592 0.000009 -0.000007 -39.955357 12.269764 -117.559795 -0.000002 0.000001 -10.306897 618.203646 -178.784873 540.273919 0.000007 0.000002 -12.404898 -300.528487 361.616798 -316.024274 -2.354802 -1.897198 5.063098 7.082156 9.096834 -19.446798 -4.375793 0.000002 -0.000011 19.890459 -7.855448 136.571422 -0.000000 -0.000002 -10.004996 -600.903651 -177.415776 -539.137430 0.000001 0.000008 -13.174891 -64.412953 -13.358075 329.009283 2.240597 0.386806 -2.614105 136.373360 -34.161833 104.058069 0.000002 -0.000000 -18.592897 -118.198664 35.375602 133.830822 -0.000001 -0.000001 -18.765797 10.025995 36.679243 -4.633916 -2.014899 -0.220895 -2.615901 -114.890216 -20.106719 -91.713144 -0.000001 0.000005 -18.633888 177.006675 29.299544 -179.859371 -0.000006 -0.000007 -18.285084 -11.286508 33.743856 -210.181819
-6.429599 26.440905 7.892910 5.924753 -4.959072 3.965266 -0.204900 1.598103 7.917306 -6.076779 6.964869 1.012163 -0.000000 0.000002 3.404099 -3.146608 -17.108471 -2.238699 -0.000001 -0.000001 7.928595 4.650802 12.891717 -6.824131 0.000000 0.000001 2.173902 1.394804 -3.426552 2.421249 2.833801 -1.396301 4.843296 30.379432 -3.880002 10.406162 4.363602 0.000012 -0.000007 -39.733218 12.480643 -117.647932 0.000003 -0.000002 -10.306898 618.299869 -178.867450 540.212284 0.000002 0.000002 -12.404895 -299.726732 361.811212 -316.263167 -2.354802 -1.897199 5.063100 7.331284 11.853994 -19.766550 -4.375793 0.000002 -0.000007 20.786485 -10.270941 137.509767 0.000003 -0.000000 -10.004999 -601.581752 -177.443356 -539.105848 -0.000002 0.000005 -13.174896 -65.111292 -13.040108 328.971308 2.240601 0.386803 -2.614101 136.477152 -34.077986 104.214637 0.000001 -0.000002 -18.592894 -118.291923 35.541070 133.896843 -0.000001 0.000002 -18.765799 9.888435 36.709238 -4.541383 -2.014898 -0.220894 -2.615899 -114.945035 -19.971912 -91.892484 0.000001 0.000003 -18.633884 176.863623 29.268696 -179.780920 -0.000005 -0.000007 -18.285086 -11.468083 33.707294 -209.991885
